# xmcd
#
# Track frame offsets:
#	150
#	16200
#	30441
#	44136
#	64242
#	80431
#	99359
#	116129
#	128149
#	142690
#	159263
#	175965
#	190085
#	200750
#	215419
#
# Disc length: 3074 seconds
#
# Revision: 1
# Processed by: cddbd v1.5.2PL0 Copyright (c) Steve Scherf et al.
# Submitted via: audiograbber 1.83.01
#
DISCID=cb0c000f
DTITLE=t6 - rtetw
DYEAR=1900
DGENRE=
TTITLE0=rtwe
TTITLE1=retwe
TTITLE2=terwt
TTITLE3=ret
TTITLE4=ret
TTITLE5=ret
TTITLE6=erwt
TTITLE7=retwe
TTITLE8=Track  erter
TTITLE9=rte
TTITLE10=ret
TTITLE11=trew
TTITLE12=terw
TTITLE13=er
TTITLE14=ttz
EXTD=twetwer
EXTT0=
EXTT1=
EXTT2=
EXTT3=
EXTT4=
EXTT5=
EXTT6=
EXTT7=
EXTT8=
EXTT9=
EXTT10=
EXTT11=
EXTT12=
EXTT13=
EXTT14=
PLAYORDER=
